<?xml version="1.0" encoding="UTF-8" standalone="no"?>
<svg
   xmlns:dc="http://purl.org/dc/elements/1.1/"
   xmlns:cc="http://creativecommons.org/ns#"
   xmlns:rdf="http://www.w3.org/1999/02/22-rdf-syntax-ns#"
   xmlns:svg="http://www.w3.org/2000/svg"
   xmlns="http://www.w3.org/2000/svg"
   viewBox="0 0 762.23999 175.33333"
   height="175.33333"
   width="762.23999"
   xml:space="preserve"
   id="svg2"
   version="1.1"><metadata
     id="metadata8"><rdf:RDF><cc:Work
         rdf:about=""><dc:format>image/svg+xml</dc:format><dc:type
           rdf:resource="http://purl.org/dc/dcmitype/StillImage" /></cc:Work></rdf:RDF></metadata><defs
     id="defs6"><clipPath
       id="clipPath20"
       clipPathUnits="userSpaceOnUse"><path
         id="path18"
         d="M 0,1314.96 V 0 h 5716.77 v 1314.96 z" /></clipPath></defs><g
     transform="matrix(1.3333333,0,0,-1.3333333,0,175.33333)"
     id="g10"><g
       transform="scale(0.1)"
       id="g12"><g
         id="g14"><g
           clip-path="url(#clipPath20)"
           id="g16"><path
             id="path22"
             style="fill:#ad252b;fill-opacity:1;fill-rule:nonzero;stroke:none"
             d="M 1823.08,657.48 C 1823.08,294.359 2117.45,0 2480.59,0 c 363.09,0 657.46,294.359 657.46,657.48 0,363.12 -294.37,657.48 -657.46,657.48 -363.14,0 -657.51,-294.36 -657.51,-657.48" /><path
             id="path24"
             style="fill:#274b86;fill-opacity:1;fill-rule:nonzero;stroke:none"
             d="M 867.477,660.309 C 816.871,700.297 756.84,720.57 689.047,720.57 H 260.984 c -27.371,0 -51.129,7.325 -72.488,22.289 -27.933,19.825 -31.168,39.649 -31.168,52.832 V 907.48 c 0,13.184 3.235,33 30.676,52.461 21.629,14.704 45.504,21.852 72.98,21.852 h 602.547 c 49.258,0 78.664,28.507 78.664,76.277 0,47.77 -29.406,76.29 -78.664,76.29 H 260.984 c -67.91,0 -127.718,-20.31 -177.8121,-60.4 C 27.9844,1029.67 0,973.652 0,907.48 V 795.691 C 0,729.461 27.9883,673.434 83.0508,629.273 133.176,588.613 193.035,567.996 260.984,567.996 h 428.063 c 28.008,0 52.144,-7.148 73.582,-21.707 C 783.691,531.723 793.5,515 793.5,493.656 V 381.121 c 0,-21.367 -9.805,-38.086 -30.687,-52.504 -21.598,-14.695 -45.723,-21.836 -73.766,-21.836 H 78.6602 C 29.4063,306.781 0,278.262 0,230.48 0,182.711 29.4063,154.199 78.6602,154.199 H 689.047 c 66.074,0 125.195,19.66 175.855,58.52 57.016,44.281 85.926,100.941 85.926,168.402 v 112.535 c 0,66.223 -27.984,122.242 -83.351,166.653" /><path
             id="path26"
             style="fill:#274b86;fill-opacity:1;fill-rule:nonzero;stroke:none"
             d="m 1386.73,1134.36 c -49.25,0 -78.66,-28.52 -78.66,-76.29 V 230.48 c 0,-47.769 29.41,-76.281 78.66,-76.281 49.26,0 78.67,28.512 78.67,76.281 v 827.59 c 0,47.77 -29.41,76.29 -78.67,76.29" /><path
             id="path28"
             style="fill:#274b86;fill-opacity:1;fill-rule:nonzero;stroke:none"
             d="m 4355.16,1137.53 c -32.49,0 -58.57,-17.24 -73.39,-48.47 l -325.34,-679.271 -325.3,679.191 c -14.89,31.31 -40.69,48.55 -72.64,48.55 -48.27,0 -77.09,-30 -77.09,-80.24 V 228.922 c 0,-47.781 29.42,-76.301 78.67,-76.301 49.26,0 78.68,28.52 78.68,76.301 v 482.723 l 246.61,-515.184 c 14.34,-30.32 39.59,-47.012 71.07,-47.012 31.49,0 56.73,16.692 71.01,46.871 l 247.47,515.625 V 228.922 c 0,-47.781 29.41,-76.301 78.67,-76.301 49.26,0 78.67,28.52 78.67,76.301 v 828.368 c 0,50.24 -28.82,80.24 -77.09,80.24" /><path
             id="path30"
             style="fill:#274b86;fill-opacity:1;fill-rule:nonzero;stroke:none"
             d="m 5370.88,608.008 h -258.96 l 129.76,270.035 z m 338.25,-345.77 -396.2,828.032 c -14.29,30.98 -39.58,48.04 -71.19,48.04 -32.13,0 -57.69,-17.06 -71.82,-47.67 L 4773.8,262.719 c -5.21,-10.418 -7.86,-21.528 -7.86,-33.02 0,-47.269 29.71,-75.5 79.46,-75.5 32.53,0 57.78,15.59 71.03,43.77 l 122.79,257.465 h 404.33 L 5567,198.121 c 13.31,-28.32 38.27,-43.922 70.29,-43.922 49.77,0 79.48,28.231 79.48,75.5 0,11.473 -2.65,22.571 -7.64,32.539" /><path
             id="path32"
             style="fill:#ffffff;fill-opacity:1;fill-rule:nonzero;stroke:none"
             d="m 2997.67,725.609 -470.3,-0.031 c -45.47,0 -72.65,-27.973 -72.69,-74.828 -0.03,-22.996 6.33,-41.336 18.88,-54.508 12.9,-13.539 30.99,-20.398 53.77,-20.398 l 470.37,-0.031 h 0.02 c 45.44,0.046 72.57,28.039 72.57,74.867 0.03,46.875 -27.11,74.886 -72.62,74.929" /><path
             id="path34"
             style="fill:#ffffff;fill-opacity:1;fill-rule:nonzero;stroke:none"
             d="m 2487.55,145.691 c -283.7,0 -514.51,230.797 -514.51,514.493 0,283.707 230.81,514.516 514.51,514.516 161.37,0 310.28,-73.5 408.56,-201.673 25.03,-32.636 18.86,-79.379 -13.78,-104.41 -32.63,-25.027 -79.39,-18.867 -104.41,13.785 -69.87,91.11 -175.7,143.368 -290.37,143.368 -201.58,0 -365.57,-164.004 -365.57,-365.586 0,-201.571 163.99,-365.563 365.57,-365.563 109.64,0 212.55,48.602 282.36,133.328 26.14,31.746 73.09,36.274 104.82,10.125 31.75,-26.152 36.28,-73.082 10.13,-104.824 -98.2,-119.199 -243.01,-187.559 -397.31,-187.559" /></g></g></g></g></svg>